<svg xmlns="http://www.w3.org/2000/svg" xmlns:xlink="http://www.w3.org/1999/xlink" xmlns:inkscape="http://www.inkscape.org/namespaces/inkscape" version="1.1" width="112" height="45" viewBox="0 0 112 45">
<defs>
<path id="font_1_1" d="M.2679901 .31362916H.3039856L.45399476 .08192444C.46398927 .06594849 .48799134 .026992798 .49899293 .011993408 .5059967 0 .5089874 0 .5319977 0H.66999819C.6879883 0 .7029877 0 .7029877 .017990113 .7029877 .025985718 .69699099 .032989503 .6879883 .034988405 .651001 .04298401 .60198977 .10890198 .5779877 .14085388 .57099917 .15083313 .5209961 .2167511 .45399476 .32463075 .54299929 .34062196 .6289978 .37861634 .6289978 .4975891 .6289978 .63656619 .48199464 .6845703 .3639984 .6845703H.049987794C.03199768 .6845703 .015991211 .6845703 .015991211 .66656497 .015991211 .64956668 .034988405 .64956668 .042999269 .64956668 .099990848 .64956668 .10499573 .64256289 .10499573 .5925751V.091918949C.10499573 .04197693 .099990848 .034988405 .042999269 .034988405 .034988405 .034988405 .015991211 .034988405 .015991211 .017990113 .015991211 0 .03199768 0 .049987794 0H.32398988C.34199525 0 .35699464 0 .35699464 .017990113 .35699464 .034988405 .33999635 .034988405 .32899476 .034988405 .27198792 .034988405 .2679901 .04298401 .2679901 .091918949V.31362916M.46099855 .36262513C.4889984 .39961244 .49198915 .4526062 .49198915 .4965973 .49198915 .5445862 .48599244 .59757998 .45399476 .63856509 .49499513 .6295624 .59399417 .5985718 .59399417 .4975891 .59399417 .43260194 .56399539 .3816223 .46099855 .36262513M.2679901 .59558108C.2679901 .61657717 .2679901 .64956668 .32998658 .64956668 .4149933 .64956668 .45700074 .614563 .45700074 .4965973 .45700074 .36761476 .42599488 .3486328 .2679901 .3486328V.59558108M.13198853 .034988405C.13999939 .052963258 .13999939 .08093262 .13999939 .089920047V.594574C.13999939 .6045685 .13999939 .6315613 .13198853 .64956668H.24598694C.23298645 .6335602 .23298645 .61357119 .23298645 .5985718V.089920047C.23298645 .079940799 .23298645 .052963258 .24099732 .034988405H.13198853M.34498597 .31362916C.35198976 .31462098 .35598756 .31562806 .3639984 .31562806 .3789978 .31562806 .40098573 .31762696 .41600038 .31962586 .43099977 .2956543 .5389862 .117889408 .621994 .034988405H.5249939L.34498597 .31362916Z"/>
<path id="font_2_2" d="M.12199402 .06324768C.117996219 .050247194 .11199951 .025222779 .11199951 .022232056 .11199951 .00022888184 .12998963-.009765625 .1459961-.009765625 .1639862-.009765625 .17999268 .0032196046 .18499756 .01222229 .18998719 .021224976 .19799805 .053237916 .20298767 .07424927 .20799256 .09326172 .21899414 .13928223 .22499085 .16429138 .23098755 .18629456 .23699951 .20831299 .24198914 .23132324 .25299073 .27233888 .25498963 .28033448 .28399659 .32136537 .31199647 .3613739 .35899354 .4133911 .43399049 .4133911 .49198915 .4133911 .49299623 .36238099 .49299623 .34336854 .49299623 .28334046 .44999696 .17228699 .43399049 .13027954 .4229889 .102264408 .4189911 .09326172 .4189911 .07624817 .4189911 .023223877 .46299745-.009765625 .5139923-.009765625 .6139984-.009765625 .6579895 .12828064 .6579895 .14328003 .6579895 .15628052 .644989 .15628052 .6419983 .15628052 .6279907 .15628052 .6269989 .15028382 .6230011 .13928223 .59999087 .059249879 .5569916 .018234253 .5169983 .018234253 .49598695 .018234253 .49198915 .032226564 .49198915 .053237916 .49198915 .07624817 .49699403 .089263919 .5149994 .13427735 .5269928 .1652832 .56799319 .2713318 .56799319 .32736207 .56799319 .4243927 .4909973 .44140626 .43798829 .44140626 .35499574 .44140626 .29899598 .39038087 .2689972 .3503723 .2619934 .41940309 .20298767 .44140626 .1619873 .44140626 .11898804 .44140626 .09599304 .4104004 .08299255 .38739015 .06098938 .3503723 .04699707 .29335023 .04699707 .28834535 .04699707 .27534486 .06098938 .27534486 .06399536 .27534486 .07798767 .27534486 .07899475 .27833558 .085998538 .3053589 .100997928 .36437989 .11999512 .4133911 .15899658 .4133911 .18499756 .4133911 .19198609 .39138795 .19198609 .36437989 .19198609 .34536744 .18299866 .3083496 .17599488 .28134156 .16899109 .2543335 .15899658 .21331787 .1539917 .19129944L.12199402 .06324768Z"/>
<path id="font_3_2" d="M.3889923 .27801515 .18899536 .47720338C.1769867 .48919679 .1749878 .49121095 .16699219 .49121095 .15699768 .49121095 .14698792 .48220826 .14698792 .47120667 .14698792 .46420289 .14898682 .46218873 .1599884 .45118714L.3600006 .24998474 .1599884 .048797609C.14898682 .03779602 .14698792 .03578186 .14698792 .028778077 .14698792 .01777649 .15699768 .0087890629 .16699219 .0087890629 .1749878 .0087890629 .1769867 .010787964 .18899536 .022781373L.3880005 .2219696 .59498599 .014785767C.5970001 .0137786869 .60398867 .0087890629 .6100006 .0087890629 .621994 .0087890629 .6299896 .01777649 .6299896 .028778077 .6299896 .030776978 .6299896 .03479004 .6269989 .039794923 .6259918 .041793825 .46699525 .19894409 .4169922 .24998474L.59999087 .4331665C.6049957 .43917848 .6199951 .45217896 .625 .45819093 .6259918 .46018983 .6299896 .46420289 .6299896 .47120667 .6299896 .48220826 .621994 .49121095 .6100006 .49121095 .60198977 .49121095 .59799197 .48719789 .58699038 .4761963L.3889923 .27801515Z"/>
<path id="font_3_1" d="M.19198609 .2502594C.19198609 .2792511 .16799927 .30325318 .13899231 .30325318 .10998535 .30325318 .085998538 .2792511 .085998538 .2502594 .085998538 .22125244 .10998535 .19726563 .13899231 .19726563 .16799927 .19726563 .19198609 .22125244 .19198609 .2502594Z"/>
<path id="font_4_1" d="M.33499146 .63612368C.33499146 .6630554 .33299256 .6640625 .30499269 .6640625 .24099732 .6014404 .1499939 .6004486 .10899353 .6004486V.5644531C.1329956 .5644531 .19898987 .5644531 .2539978 .592453V.08203125C.2539978 .04899597 .2539978 .035995485 .1539917 .035995485H.115997318V0C.13398743 .0009918213 .25698854 .0039978029 .2939911 .0039978029 .32499696 .0039978029 .45098878 .0009918213 .47299195 0V.035995485H.43499757C.33499146 .035995485 .33499146 .04899597 .33499146 .08203125V.63612368Z"/>
<path id="font_2_1" d="M.31098939 .36265565H.42999269C.4149933 .30274964 .3929901 .2118988 .3929901 .13302613 .3929901 .09309387 .397995 .06613159 .4039917 .044174196 .41999818-.0057678224 .43299867-.009765625 .44898988-.009765625 .47200013-.009765625 .49598695 .011230469 .49598695 .035186769 .49598695 .043182374 .49398805 .047164918 .48799134 .057159425 .46899415 .09408569 .45098878 .15100098 .45098878 .23286438 .45098878 .25183106 .45098878 .29177857 .46499635 .36265565H.58999636C.60798647 .36265565 .6159973 .36265565 .6269989 .37065126 .6409912 .380661 .6439972 .39665223 .6439972 .4016571 .6439972 .43066407 .6179962 .43066407 .6009979 .43066407H.22399903C.18299866 .43066407 .15499878 .42166139 .10998535 .37965394 .083999637 .35665895 .04499817 .30274964 .04499817 .2937622 .04499817 .28178407 .057998659 .28178407 .06199646 .28178407 .07299805 .28178407 .07398987 .28378297 .07998657 .2927704 .1309967 .36265565 .19299317 .36265565 .21499634 .36265565H.27598573C.24499512 .25283814 .19099427 .13502503 .16099549 .07511902 .15499878 .062149049 .14498902 .04118347 .14199829 .03718567 .14099121 .033187868 .13899231 .029190064 .13899231 .022201539 .13899231 .006225586 .15098572-.009765625 .17399597-.009765625 .21398926-.009765625 .22499085 .035186769 .24899292 .12504578L.31098939 .36265565Z"/>
<path id="font_5_1" d="M.3959961 .6244507C.3959961 .64845278 .37799073 .66744998 .35198976 .66744998 .32398988 .66744998 .29100038 .6404419 .29100038 .6074524 .29100038 .5794525 .31298829 .5644531 .33399964 .5644531 .36698915 .5644531 .3959961 .5944519 .3959961 .6244507M.44299317 .14428711C.44299317 .15829468 .42599488 .15829468 .42199708 .15829468 .40499879 .15829468 .4039917 .15429688 .397995 .13528443 .3809967 .08027649 .33599855 .023254395 .28599549 .023254395 .2630005 .023254395 .2559967 .039260866 .2559967 .061264039 .2559967 .08227539 .26098634 .09327698 .2689972 .11227417 .2769928 .1322937 .2849884 .15229798 .2899933 .16629029 .2939911 .17530823 .33299256 .2683258 .34700013 .30433656 .35499574 .32435609 .36099244 .33735658 .36099244 .35435487 .36099244 .40237428 .31498719 .4423828 .2519989 .4423828 .14698792 .4423828 .09098816 .3143463 .09098816 .28733827 .09098816 .2733307 .10699463 .2733307 .11199951 .2733307 .1289978 .2733307 .12998963 .27833558 .1349945 .29333497 .15699768 .36436463 .20498657 .40837098 .24798584 .40837098 .2669983 .40837098 .27799989 .39736939 .27799989 .37036134 .27799989 .36636354 .27799989 .35336305 .27198792 .3343506 .2649994 .3163452 .21998596 .20930481 .20599365 .17530823 .19898987 .15829468 .19898987 .15629578 .18399048 .122283939 .1789856 .10827637 .17298889 .0942688 .17298889 .07727051 .17298889 .025253296 .22200012-.0107421879 .28199769-.0107421879 .3869934-.0107421879 .44299317 .119277957 .44299317 .14428711Z"/>
<path id="font_6_1" d="M.5069885 .24998474C.5069885 .3710022 .4099884 .4650116 .2919922 .4650116 .17199707 .4650116 .07699585 .36799623 .07699585 .25097657 .07699585 .1299591 .17399597 .035949708 .2919922 .035949708 .4119873 .035949708 .5069885 .13296509 .5069885 .24998474M.2919922 .08496094C.19799805 .08496094 .12599182 .16096497 .12599182 .24998474 .12599182 .34300233 .19999695 .41601563 .2919922 .41601563 .38598634 .41601563 .45799256 .33999635 .45799256 .25097657 .45799256 .15795899 .38398744 .08496094 .2919922 .08496094Z"/>
</defs>
<use data-text="R" xlink:href="#font_1_1" transform="matrix(9.962799,0,0,-9.963197,29.75032,8.112764)"/>
<use data-text="n" xlink:href="#font_2_2" transform="matrix(6.97394,0,0,-6.9742186,36.946458,4.497547)"/>
<use data-text="R" xlink:href="#font_1_1" transform="matrix(9.962799,0,0,-9.963197,1.1887512,40.21069)"/>
<use data-text="&#x00d7;" xlink:href="#font_3_2" transform="matrix(9.962799,0,0,-9.963197,10.597931,40.21069)"/>
<use data-text="R" xlink:href="#font_1_1" transform="matrix(9.962799,0,0,-9.963197,20.561127,40.21069)"/>
<use data-text="&#x00d7;" xlink:href="#font_3_2" transform="matrix(9.962799,0,0,-9.963197,29.970307,40.21069)"/>
<use data-text="&#x00b7;" xlink:href="#font_3_1" transform="matrix(9.962799,0,0,-9.963197,39.92314,40.21069)"/>
<use data-text="&#x00b7;" xlink:href="#font_3_1" transform="matrix(9.962799,0,0,-9.963197,44.33667,40.21069)"/>
<use data-text="&#x00b7;" xlink:href="#font_3_1" transform="matrix(9.962799,0,0,-9.963197,48.760164,40.21069)"/>
<use data-text="&#x00d7;" xlink:href="#font_3_2" transform="matrix(9.962799,0,0,-9.963197,53.731615,40.21069)"/>
<use data-text="R" xlink:href="#font_1_1" transform="matrix(9.962799,0,0,-9.963197,63.733,40.21069)"/>
<use data-text="R" xlink:href="#font_1_1" transform="matrix(9.962799,0,0,-9.963197,103.427799,40.21069)"/>
<path transform="matrix(1.00002,0,0,-1.00006,55.906847,21.145548)" stroke-width=".39848" stroke-linecap="butt" stroke-miterlimit="10" stroke-linejoin="miter" fill="none" stroke="#000000" d="M-19.84691 9.18236V-7.95367"/>
<path transform="matrix(0,1.00006,1.00002,0,36.05954,29.298947)" stroke-width=".39848" stroke-linecap="round" stroke-linejoin="round" fill="none" stroke="#000000" d="M-2.07213 2.39091C-1.69356 .95633-.84995 .27893 0 0-.84995-.27893-1.69356-.95633-2.07213-2.39091"/>
<use data-text="1" xlink:href="#font_4_1" transform="matrix(6.97394,0,0,-6.9742186,29.742325,22.977658)"/>
<path transform="matrix(1.00002,0,0,-1.00006,55.906847,21.145548)" stroke-width=".39848" stroke-linecap="butt" stroke-miterlimit="10" stroke-linejoin="miter" fill="none" stroke="#000000" d="M-9.0445 10.63872 42.66486-12.75061"/>
<path transform="matrix(.91110828,.4121247,.41210825,-.9111447,98.75409,33.97902)" stroke-width=".39848" stroke-linecap="round" stroke-linejoin="round" fill="none" stroke="#000000" d="M-2.07213 2.39091C-1.69356 .95633-.84995 .27893 0 0-.84995-.27893-1.69356-.95633-2.07213-2.39091"/>
<use data-text="&#x03c0;" xlink:href="#font_2_1" transform="matrix(6.97394,0,0,-6.9742186,75.24523,18.941416)"/>
<use data-text="i" xlink:href="#font_5_1" transform="matrix(4.9813997,0,0,-4.9815986,79.90432,19.937478)"/>
<use data-text="&#x25e6;" xlink:href="#font_6_1" transform="matrix(6.97394,0,0,-6.9742186,83.0604,18.941416)"/>
<use data-text="1" xlink:href="#font_4_1" transform="matrix(6.97394,0,0,-6.9742186,87.14248,18.941416)"/>
<path transform="matrix(1.00002,0,0,-1.00006,55.906847,21.145548)" stroke-width=".39848" stroke-linecap="butt" stroke-miterlimit="10" stroke-linejoin="miter" fill="none" stroke="#000000" d="M19.51582-16.5738H42.62943"/>
<path transform="matrix(1.00002,0,0,-1.00006,98.73636,37.72034)" stroke-width=".39848" stroke-linecap="round" stroke-linejoin="round" fill="none" stroke="#000000" d="M-2.07213 2.39091C-1.69356 .95633-.84995 .27893 0 0-.84995-.27893-1.69356-.95633-2.07213-2.39091"/>
<use data-text="&#x03c0;" xlink:href="#font_2_1" transform="matrix(6.97394,0,0,-6.9742186,83.27139,43.069864)"/>
<use data-text="i" xlink:href="#font_5_1" transform="matrix(4.9813997,0,0,-4.9815986,87.93048,44.06592)"/>
</svg>
